<svg width="25" height="17" viewBox="0 0 25 17" fill="none" xmlns="http://www.w3.org/2000/svg">
	<path
		d="M6.28955 13.5933C7.75738 15.3628 9.97476 16.4922 12.454 16.4922C14.9332 16.4922 17.1498 15.3628 18.6168 13.5933C16.8004 13.9825 14.694 14.2037 12.454 14.2037C10.2108 14.2037 8.10754 13.9825 6.28955 13.5933Z"
		fill="#EEEEFE" />
	<path
		d="M20.5251 5.08561C20.6627 5.40841 20.7815 5.73981 20.8792 6.08058C21.721 6.40807 22.2126 6.78714 22.2126 7.19357C22.2126 7.66565 21.5615 8.101 20.4524 8.45897C20.4352 4.05625 16.8595 0.492188 12.4536 0.492188C8.04621 0.492188 4.47198 4.05625 4.45479 8.45975C3.34493 8.101 2.69386 7.66487 2.69386 7.19357C2.69386 6.78792 3.18626 6.40729 4.02726 6.08058C4.12574 5.73981 4.24532 5.40841 4.3821 5.08483C1.7028 5.90629 0.000488281 7.12792 0.000488281 8.49258C0.000488281 8.67 0.0286256 8.8443 0.0841188 9.01546C0.803966 11.243 6.068 12.9703 12.4536 12.9703C18.8377 12.9703 24.1033 11.243 24.8247 9.01546C24.8786 8.84273 24.9075 8.67 24.9075 8.49258C24.906 7.12792 23.2044 5.90707 20.5251 5.08561Z"
		fill="#EEEEFE" />
</svg>