<svg width="180" height="180" viewBox="0 0 180 180" fill="none" xmlns="http://www.w3.org/2000/svg">
<path d="M159.214 147.406C168.453 136.299 174.879 123.133 177.948 109.02C181.017 94.907 180.639 80.2632 176.846 66.3273C173.053 52.3913 165.956 39.5732 156.156 28.9572C146.357 18.3412 134.142 10.2397 120.546 5.33798C106.95 0.436269 92.3729 -1.12143 78.0469 0.796647C63.721 2.71473 50.0682 8.05217 38.2434 16.3574C26.4185 24.6627 16.7696 35.6915 10.1129 48.5108C3.45614 61.3301 -0.0126257 75.5628 3.4531e-05 90.0049C0.00489269 111 7.4094 131.322 20.9143 147.406L20.7856 147.515C21.2359 148.055 21.7506 148.518 22.2138 149.052C22.7927 149.714 23.4168 150.337 24.015 150.98C25.8163 152.934 27.6691 154.811 29.6119 156.572C30.2037 157.112 30.8149 157.613 31.4132 158.128C33.4718 159.902 35.5883 161.586 37.782 163.154C38.0651 163.347 38.3224 163.598 38.6055 163.797V163.72C53.6726 174.314 71.6469 180 90.0708 180C108.495 180 126.469 174.314 141.536 163.72V163.797C141.819 163.598 142.07 163.347 142.36 163.154C144.547 161.579 146.67 159.902 148.728 158.128C149.327 157.613 149.938 157.106 150.53 156.572C152.473 154.804 154.325 152.934 156.127 150.98C156.725 150.337 157.342 149.714 157.928 149.052C158.385 148.518 158.906 148.055 159.356 147.509L159.214 147.406ZM90.0644 38.5818C95.79 38.5818 101.387 40.2783 106.148 43.4567C110.908 46.635 114.619 51.1526 116.81 56.438C119.001 61.7235 119.574 67.5394 118.457 73.1504C117.34 78.7614 114.583 83.9154 110.535 87.9607C106.486 92.006 101.328 94.7609 95.7121 95.877C90.0965 96.9931 84.2757 96.4203 78.986 94.231C73.6962 92.0417 69.1749 88.3342 65.9939 83.5775C62.813 78.8207 61.1151 73.2283 61.1151 67.5073C61.1151 59.8358 64.1651 52.4785 69.5942 47.0539C75.0232 41.6293 82.3865 38.5818 90.0644 38.5818ZM38.6441 147.406C38.7557 138.966 42.1884 130.909 48.1996 124.979C54.2108 119.048 62.3172 115.721 70.7649 115.716H109.364C117.812 115.721 125.918 119.048 131.929 124.979C137.94 130.909 141.373 138.966 141.485 147.406C127.376 160.11 109.057 167.14 90.0644 167.14C71.072 167.14 52.753 160.11 38.6441 147.406Z" fill="#C4C4C4"/>
</svg>
